<svg xmlns="http://www.w3.org/2000/svg" viewBox="0 0 264.59 72.65">
    <defs>
        <style>.cls-1{fill:#fa1772;}.cls-2{fill:#4f5f68;}.cls-3{fill:#6e7c84;}.cls-4{fill:#aa174c;}.cls-5{fill:#3a2b37;}</style>
    </defs>
    <g id="Ebene_2" data-name="Ebene 2">
        <g id="svg2">
            <g id="g10">
                <g id="g12">
                    <path id="path14" class="cls-1" d="M111.73,35.66a17,17,0,0,0-.64-4.77,11.13,11.13,0,0,0-1.9-3.82,9.38,9.38,0,0,0-3-2.53,8.47,8.47,0,0,0-4-.93h-4V49.27h3.69a8.12,8.12,0,0,0,4-1A9.49,9.49,0,0,0,109,45.43a13.54,13.54,0,0,0,2-4.3,20,20,0,0,0,.7-5.47m6.46,0a23.21,23.21,0,0,1-1.14,7.41A18.12,18.12,0,0,1,113.82,49a14.54,14.54,0,0,1-5.07,3.86,15.68,15.68,0,0,1-6.66,1.38H93.18a1.2,1.2,0,0,1-.93-.37,1.37,1.37,0,0,1-.35-1V20a1.37,1.37,0,0,1,.35-1,1.2,1.2,0,0,1,.93-.37H102a17.32,17.32,0,0,1,6.6,1.22,14.26,14.26,0,0,1,5.1,3.47A15.88,15.88,0,0,1,117,28.72a19.58,19.58,0,0,1,1.17,6.94"/>
                    <path id="path16" class="cls-1" d="M148.69,53.83a1.3,1.3,0,0,1-1,.37h-3.66a1.18,1.18,0,0,1-.93-.37,1.37,1.37,0,0,1-.35-1V38.26h-12.3V52.87a1.27,1.27,0,0,1-1.33,1.33H125.5a1.2,1.2,0,0,1-.93-.37,1.37,1.37,0,0,1-.35-1V20a1.37,1.37,0,0,1,.35-1,1.2,1.2,0,0,1,.93-.37h3.66A1.27,1.27,0,0,1,130.49,20v13h12.3V20a1.37,1.37,0,0,1,.35-1,1.18,1.18,0,0,1,.93-.37h3.66A1.27,1.27,0,0,1,149.06,20V52.87a1.3,1.3,0,0,1-.37,1"/>
                    <path id="path18" class="cls-2" d="M173.88,43.82a6,6,0,0,0-2.1-4.87,8.2,8.2,0,0,0-5.48-1.79h-5.82V51.07h5.82a8.07,8.07,0,0,0,2.94-.54A7.54,7.54,0,0,0,171.67,49a6.71,6.71,0,0,0,1.62-2.29,7,7,0,0,0,.59-2.93M173,27.71a5.36,5.36,0,0,0-1.87-4.31,7.16,7.16,0,0,0-4.85-1.6h-5.82V34.1h5.66a6.77,6.77,0,0,0,2.56-.48,7,7,0,0,0,2.19-1.33,6.72,6.72,0,0,0,1.55-2,5.76,5.76,0,0,0,.58-2.56M177.92,44a9.53,9.53,0,0,1-1,4.32,9.4,9.4,0,0,1-2.64,3.23,12.56,12.56,0,0,1-3.91,2,16.36,16.36,0,0,1-4.74.68h-8.16a.9.9,0,0,1-.64-.26.87.87,0,0,1-.27-.64V19.52a.78.78,0,0,1,.27-.61.93.93,0,0,1,.64-.24h8.8a15.42,15.42,0,0,1,4,.53,10.45,10.45,0,0,1,3.41,1.62,8.14,8.14,0,0,1,2.35,2.78,8.33,8.33,0,0,1,.88,4,6.27,6.27,0,0,1-.64,2.75,10.15,10.15,0,0,1-3.72,4.09,8.94,8.94,0,0,1-2.21,1,9.69,9.69,0,0,1,2.84,1,8.8,8.8,0,0,1,4.05,4.42,8,8,0,0,1,.62,3.12"/>
                    <path id="path20" class="cls-2" d="M209.47,53.3a1.48,1.48,0,0,1-.37.64.9.9,0,0,1-.64.26H205.8a1,1,0,0,1-.67-.26,1.36,1.36,0,0,1-.4-.64l-5.89-29.78L193.05,53.3a1.36,1.36,0,0,1-.4.64,1,1,0,0,1-.67.26h-2.66a1,1,0,0,1-.66-.26,1.47,1.47,0,0,1-.41-.64l-6.83-33.78a.57.57,0,0,1,.13-.61.84.84,0,0,1,.61-.24h2.24a1,1,0,0,1,1.07.85l5.34,29.83,5.79-29.83a1,1,0,0,1,1.07-.85h2.66a1,1,0,0,1,1,.85l5.84,29.83,5.29-29.83a1,1,0,0,1,1-.85h2.13a.76.76,0,0,1,.59.24.59.59,0,0,1,.1.61L209.47,53.3"/>
                    <path id="path22" class="cls-1" d="M17.78,54.19H1.33A1.33,1.33,0,0,1,0,52.86V20a1.34,1.34,0,0,1,1.33-1.33H34.22A1.34,1.34,0,0,1,35.55,20v1.46h0c0-.37-.15-.55-.39-.55a1.52,1.52,0,0,0-.94.55h0L19.11,36.55a4.58,4.58,0,0,0-1.33,2.66v15"/>
                    <path id="path24" class="cls-1" d="M38.65,20V18.33A4.57,4.57,0,0,1,40,15.66L55.09.55A1.52,1.52,0,0,1,56,0c.24,0,.39.18.39.55v18.1H40A1.33,1.33,0,0,0,38.65,20"/>
                    <path id="path26" class="cls-3" d="M72.86,54.19H40a1.32,1.32,0,0,1-1.33-1.33V51.21c0,.37.15.55.39.55h0a1.54,1.54,0,0,0,.94-.55L55.09,36.1a4.86,4.86,0,0,0,.76-1,3.57,3.57,0,0,0,.57-1.66V18.65H72.86A1.34,1.34,0,0,1,74.2,20V52.86a1.33,1.33,0,0,1-1.34,1.33"/>
                    <path id="path28" class="cls-4" d="M39,51.76c-.24,0-.39-.18-.39-.55V20A1.33,1.33,0,0,1,40,18.65H56.42V33.43a3.57,3.57,0,0,1-.57,1.66,5.24,5.24,0,0,1-.76,1L40,51.21a1.54,1.54,0,0,1-.94.55"/>
                    <path id="path30" class="cls-5" d="M39,51.76h0a1.54,1.54,0,0,0,.94-.55L55.09,36.1a5.24,5.24,0,0,0,.76-1,4.86,4.86,0,0,1-.76,1L40,51.21a1.54,1.54,0,0,1-.94.55"/>
                    <path id="path32" class="cls-3" d="M18.17,72.65c-.24,0-.39-.19-.39-.55V54.19H34.22a1.33,1.33,0,0,0,1.33-1.33v1.46A4.63,4.63,0,0,1,34.22,57L19.11,72.1a1.6,1.6,0,0,1-.94.55"/>
                    <path id="path34" class="cls-4" d="M34.22,54.19H17.78v-15a4.58,4.58,0,0,1,1.33-2.66L34.22,21.44a1.52,1.52,0,0,1,.94-.55c.24,0,.39.18.39.55V52.86a1.33,1.33,0,0,1-1.33,1.33"/>
                </g>
            </g>
            <path class="cls-2" d="M222.86,22.54a2.28,2.28,0,0,1,2.41-2.6,2.32,2.32,0,0,1,2.39,2.6,2.53,2.53,0,0,1-.72,2,2.44,2.44,0,0,1-1.67.64,2.49,2.49,0,0,1-1.72-.64A2.59,2.59,0,0,1,222.86,22.54Zm4.41,31.76h-4.09v-25h4.09Z"/>
            <path class="cls-2" d="M239.25,41.44l1.39-1.78,1.59-1.91,8-8.45H255L244.9,40,255.71,54.3h-4.94L242.1,42.64l-2.85,2.48V54.3H235.2V18.87h4.05V37.38l-.18,4.06Z"/>
            <path class="cls-2" d="M259.79,22.54a2.28,2.28,0,0,1,2.41-2.6,2.32,2.32,0,0,1,2.39,2.6,2.53,2.53,0,0,1-.72,2,2.44,2.44,0,0,1-1.67.64,2.47,2.47,0,0,1-1.72-.64A2.59,2.59,0,0,1,259.79,22.54ZM264.2,54.3h-4.09v-25h4.09Z"/>
        </g>
    </g>
</svg>