<svg xmlns="http://www.w3.org/2000/svg" width="2702" height="2702" viewBox="0 0 2702 2702" version="1.1">
	<path d="M 1952.330 188.950 C 1947.834 190.034, 1941.318 193.558, 1935.500 198.052 C 1932.750 200.175, 1818.646 313.870, 1681.937 450.707 C 1409.206 723.689, 1426.319 705.787, 1413.520 731.500 C 1406.222 746.162, 1402.568 756.409, 1401.016 766.563 C 1400.276 771.404, 1400.038 941.976, 1400.228 1331 L 1400.500 1888.500 1402.691 1894.299 C 1407.048 1905.826, 1416.551 1915.664, 1427.656 1920.143 L 1433.500 1922.500 1965.500 1922.792 C 2357.979 1923.008, 2499.074 1922.788, 2503.500 1921.954 C 2516.469 1919.510, 2527.514 1910.803, 2533.818 1898.052 L 2537.500 1890.604 2537.803 1357.552 C 2538.030 956.920, 2537.818 823.134, 2536.949 819 C 2533.510 802.646, 2519.646 789.157, 2503.040 786.008 C 2499.555 785.347, 2406.762 785, 2233.364 785 L 1969 785 1969 491.901 C 1969 221.635, 1968.872 198.531, 1967.351 195.326 C 1964.711 189.764, 1959.001 187.340, 1952.330 188.950 M 195.813 786.470 C 178.769 791.164, 166.841 804.508, 164.052 822 C 162.603 831.083, 162.603 1876.917, 164.052 1886 C 166.780 1903.112, 177.853 1916.052, 194.091 1921.105 C 200.001 1922.945, 207.929 1923, 466.589 1923 L 733 1923 733 2213.099 C 733 2479.202, 733.135 2503.482, 734.630 2506.633 C 736.899 2511.414, 739.607 2513.002, 745.473 2512.990 C 752.088 2512.977, 758.577 2509.877, 768 2502.229 C 780.069 2492.433, 1264.810 2006.675, 1271.173 1998 C 1285.243 1978.818, 1294.210 1961.089, 1299.243 1942.500 L 1301.409 1934.500 1301.758 1383 C 1302 1000.353, 1301.784 829.051, 1301.053 823.500 C 1298.552 804.512, 1285.356 789.939, 1267.201 786.116 C 1258.895 784.367, 202.181 784.716, 195.813 786.470" stroke="none" fill="black" fill-rule="evenodd"/>
</svg>